<svg version="1.1" id="Layer_1" xmlns="http://www.w3.org/2000/svg" xmlns:xlink="http://www.w3.org/1999/xlink" x="0px" y="0px"
	 width="100%" viewBox="0 0 336 336" enable-background="new 0 0 336 336" xml:space="preserve">
<path fill="#4A5F91" opacity="1.000000" stroke="none" 
	d="
M209.830795,264.718018 
	C208.437241,262.825684 208.816589,260.947693 208.816071,259.148010 
	C208.801163,206.878098 208.805008,154.608170 208.825104,102.338249 
	C208.828262,94.126747 208.870865,94.104202 217.170715,94.068748 
	C226.492599,94.028938 235.815857,94.115211 245.136154,93.982101 
	C248.839676,93.929199 250.461777,95.081627 250.444794,99.140305 
	C250.310257,131.267380 251.206207,163.424774 250.079010,195.512909 
	C249.276886,218.347015 242.918961,239.892029 224.877609,255.988327 
	C220.569885,259.831604 216.172623,263.722839 209.830795,264.718018 
z"/>
<path fill="#4A5F91" opacity="1.000000" stroke="none" 
	d="
M172.005707,137.974731 
	C178.994446,137.983246 185.484482,138.033997 191.973679,137.981628 
	C195.064178,137.956696 196.435287,139.153076 196.410675,142.434189 
	C196.297104,157.576172 196.334656,172.719467 196.371704,187.862183 
	C196.377686,190.308548 195.526154,192.438248 194.338104,194.447998 
	C185.645309,209.153076 173.954651,221.048401 160.035492,230.827301 
	C159.402847,231.271774 158.553040,231.407150 157.779114,231.695892 
	C156.026443,229.861404 156.696899,227.766922 156.693375,225.896591 
	C156.642426,198.772736 156.781357,171.647705 156.549774,144.525726 
	C156.506744,139.487518 158.019531,137.494980 163.024261,137.946259 
	C165.829758,138.199265 168.677795,137.980728 172.005707,137.974731 
z"/>
<path fill="#4A5F91" opacity="1.000000" stroke="none" 
	d="
M144.389450,214.000153 
	C144.385361,221.498611 144.363831,228.497131 144.388138,235.495499 
	C144.395386,237.582626 144.130600,239.357422 142.031906,240.571625 
	C131.156082,246.863831 119.464172,251.186508 107.563370,255.009399 
	C106.860481,255.235184 105.982056,254.914490 105.011490,254.833633 
	C104.859604,253.699203 104.621613,252.737228 104.617943,251.774353 
	C104.536575,230.451279 104.944298,209.127258 104.152817,187.805542 
	C103.870895,180.210724 104.299873,180.021774 111.976288,179.998566 
	C120.974243,179.971344 129.974380,180.089783 138.969391,179.921310 
	C143.046173,179.844955 144.554810,181.348740 144.448410,185.508209 
	C144.209900,194.833267 144.383667,204.168854 144.389450,214.000153 
z"/>
<path fill="#4A5F91" opacity="1.000000" stroke="none" 
	d="
M113.620697,262.633118 
	C145.130829,251.754410 172.828690,235.533493 195.319824,211.085968 
	C196.889679,212.155151 196.335785,213.618378 196.340134,214.826477 
	C196.392319,229.311295 196.411926,243.796432 196.367584,258.281281 
	C196.347382,264.880280 193.989105,267.269653 187.326035,267.357819 
	C161.025803,267.705719 134.718460,266.917175 108.420830,267.830963 
	C107.285782,267.870392 106.059074,267.973175 105.098724,266.498108 
	C107.122520,263.796295 110.565407,264.026672 113.620697,262.633118 
z"/>
</svg>